<svg width="24" height="24" viewBox="0 0 24 24" fill="none" xmlns="http://www.w3.org/2000/svg">
<path d="M18 1.5C20.481 1.5 22.5 3.519 22.5 6V18C22.5 20.481 20.481 22.5 18 22.5H6C3.519 22.5 1.5 20.481 1.5 18V6C1.5 3.519 3.519 1.5 6 1.5H18ZM18 0H6C2.6865 0 0 2.6865 0 6V18C0 21.3135 2.6865 24 6 24H18C21.3135 24 24 21.3135 24 18V6C24 2.6865 21.3135 0 18 0ZM11.25 4.5H5.25C4.836 4.5 4.5 4.836 4.5 5.25C4.5 5.664 4.836 6 5.25 6H11.25C11.664 6 12 5.664 12 5.25C12 4.836 11.664 4.5 11.25 4.5ZM14.25 10.5H8.25C7.836 10.5 7.5 10.836 7.5 11.25C7.5 11.664 7.836 12 8.25 12H14.25C14.664 12 15 11.664 15 11.25C15 10.836 14.664 10.5 14.25 10.5ZM17.25 16.5H11.25C10.836 16.5 10.5 16.836 10.5 17.25C10.5 17.664 10.836 18 11.25 18H17.25C17.664 18 18 17.664 18 17.25C18 16.836 17.664 16.5 17.25 16.5Z" fill="#E56D29"/>
</svg>
