<svg width="23" height="24" viewBox="0 0 23 24" fill="none" xmlns="http://www.w3.org/2000/svg">
<path d="M21.5141 11.1376C21.1569 9.3136 19.5887 8 17.7666 8V6.4C17.7666 2.8656 14.9607 0 11.5 0C8.03918 0 5.23326 2.8656 5.23326 6.4V8C3.41122 8 1.84299 9.3136 1.48578 11.1376L0.0914455 18.2584C-0.185072 19.6688 0.172912 21.1312 1.06513 22.2432C1.95735 23.3552 3.29137 24 4.69981 24H18.3001C19.7085 24 21.0418 23.3552 21.9348 22.2432C22.8278 21.1312 23.185 19.6688 22.9085 18.2584L21.5141 11.1376ZM6.79994 6.4C6.79994 3.7528 8.90868 1.6 11.5 1.6C14.0912 1.6 16.2 3.7528 16.2 6.4V8H6.79994V6.4ZM3.03131 11.4008C3.23654 10.3536 4.13659 9.6 5.18235 9.6H17.8176C18.8633 9.6 19.7634 10.3536 19.9686 11.4008L21.3731 18.5728C21.5572 19.5128 21.3191 20.488 20.7237 21.2288C20.1284 21.9704 19.2393 22.4 18.3001 22.4H4.69981C3.76138 22.4 2.87151 21.9704 2.27695 21.2288C1.68162 20.4872 1.44348 19.5128 1.62757 18.5728L3.03131 11.4008ZM5.23326 12C5.23326 11.5584 5.5842 11.2 6.0166 11.2C6.449 11.2 6.79994 11.5584 6.79994 12V13.6C6.79994 14.0416 6.449 14.4 6.0166 14.4C5.5842 14.4 5.23326 14.0416 5.23326 13.6V12ZM16.2 12C16.2 11.5584 16.5509 11.2 16.9833 11.2C17.4157 11.2 17.7666 11.5584 17.7666 12V13.6C17.7666 14.0416 17.4157 14.4 16.9833 14.4C16.5509 14.4 16.2 14.0416 16.2 13.6V12Z" fill="#888585"/>
</svg>
