<svg width="26" height="25" viewBox="0 0 26 25" fill="none" xmlns="http://www.w3.org/2000/svg">
<path d="M19.7811 0.688377C16.237 0.334127 14.5088 1.52038 13 3.13481C11.4912 1.52038 9.75325 0.330877 6.22213 0.688377C3.49131 0.946752 0.379438 3.29894 0 7.918L0.00325 9.33907C0.390812 14.1734 4.49069 19.1931 12.5401 24.6856L13 25L13.4599 24.6856C21.5093 19.1931 25.61 14.1734 26 9.27569L25.9967 7.85219C25.6206 3.29894 22.5087 0.946752 19.7811 0.688377ZM13 23.0394C5.78419 18.0328 1.9565 13.3837 1.625 9.27569L1.62175 7.98463C1.92156 4.356 4.29731 2.49131 6.38056 2.29388C6.74456 2.25813 7.08419 2.24188 7.40269 2.24188C9.70531 2.24188 10.8428 3.09094 12.3825 4.87519L13 5.59019L13.6175 4.87519C15.3709 2.84475 16.6441 2.00463 19.6227 2.29388C21.7035 2.4905 24.0784 4.35519 24.3758 7.918L24.3791 9.2115C24.0435 13.3821 20.2158 18.0328 13 23.0394Z" fill="#888585"/>
</svg>
